<?xml version="1.0" encoding="utf-8"?>
<!-- Generator: Adobe Illustrator 21.1.0, SVG Export Plug-In . SVG Version: 6.00 Build 0)  -->
<svg version="1.1" id="Layer_1" xmlns="http://www.w3.org/2000/svg" xmlns:xlink="http://www.w3.org/1999/xlink" x="0px" y="0px"
	 viewBox="0 0 1964 659.2" style="enable-background:new 0 0 1964 659.2;" xml:space="preserve">
<style type="text/css">
	.st0{fill:#D3D3D3;}
	.st1{fill:#FFFFFF;}
	.st2{fill:#C7DBE8;}
	.st3{fill:#DCB28A;}
	.st4{fill:#FFFFFF;stroke:#DCB28A;stroke-miterlimit:10;}
	.st5{fill:#B3B3B3;}
	.st6{fill:none;stroke:#DCB28A;stroke-miterlimit:10;}
	.st7{fill:#B2B3B2;}
	.st8{fill:#CFCCCB;}
	.st9{fill:#C6DAE8;}
	.st10{fill:none;stroke:#C4D5D6;stroke-miterlimit:10;}
	.st11{fill:none;stroke:#C4D5D6;stroke-width:2;stroke-miterlimit:10;}
	.st12{fill:#BDD4D6;}
	.st13{fill:#EBC08E;}
	.st14{fill:none;stroke:#B3B3B3;stroke-miterlimit:10;}
	.st15{fill:#B2B4B4;}
	.st16{fill:#EEC392;}
	.st17{fill:#C7DBDB;}
	.st18{fill:#C4D7D7;}
	.st19{fill:#D9B490;}
	.st20{fill:#C7DBE9;}
	.st21{fill:#C0E4D9;}
	.st22{fill:none;stroke:#000000;stroke-miterlimit:10;}
	.st23{fill:#A1D7CA;}
	.st24{opacity:0.5;fill:#A09F9F;}
	.st25{fill:#999999;}
	.st26{fill:none;stroke:#CFCECD;stroke-width:0.75;stroke-miterlimit:10;}
	.st27{clip-path:url(#SVGID_28_);}
	.st28{fill:#F3F4F5;}
	.st29{clip-path:url(#SVGID_30_);}
	.st30{clip-path:url(#SVGID_32_);}
	.st31{clip-path:url(#SVGID_34_);}
	.st32{fill:url(#SVGID_35_);}
	.st33{fill:#4D81BF;}
	.st34{clip-path:url(#SVGID_39_);}
	.st35{fill:#DEDDDD;}
	.st36{clip-path:url(#SVGID_47_);}
	.st37{fill:url(#SVGID_48_);}
	.st38{clip-path:url(#SVGID_58_);}
	.st39{fill:none;}
	.st40{clip-path:url(#SVGID_62_);}
	.st41{opacity:0.21;fill:#FFFFFF;}
	.st42{fill:#7C7D81;}
	.st43{fill:#4F81BD;}
	.st44{clip-path:url(#SVGID_66_);}
	.st45{clip-path:url(#SVGID_74_);}
	.st46{opacity:0.1;fill:#FFFFFF;}
	.st47{clip-path:url(#SVGID_80_);}
	.st48{clip-path:url(#SVGID_80_);fill:none;stroke:#CFCECD;stroke-width:0.75;stroke-miterlimit:10;}
	.st49{opacity:0.1;clip-path:url(#SVGID_80_);fill:#FFFFFF;}
	.st50{fill:#D6B28F;}
	.st51{font-family:'Karla-Regular';}
	.st52{font-size:35px;}
	.st53{clip-path:url(#SVGID_96_);}
	.st54{clip-path:url(#SVGID_98_);}
	.st55{clip-path:url(#SVGID_104_);}
</style>
<g>
	<g>
		<g>
			<path class="st15" d="M969.3,602.6l-68.2-72.3H720.7c-19,0-34.5-16.3-34.5-36.2v-396c0-20,15.5-36.2,34.5-36.2h497
				c19,0,34.5,16.3,34.5,36.2v396c0,20-15.5,36.2-34.5,36.2h-181.1L969.3,602.6z M720.7,74.4c-12.2,0-22,10.7-22,23.7v396
				c0,13.1,9.9,23.7,22,23.7h185.7l62.8,66.5l62-66.5h186.6c12.2,0,22-10.7,22-23.7v-396c0-13.1-9.9-23.7-22-23.7H720.7z"/>
		</g>
	</g>
	<g>
		<g>
			<g>
				<path class="st16" d="M955.4,264.3h181.8c4.5,0,8.2-3.7,8.2-8.2v-53.4c0-4.5-3.7-8.2-8.2-8.2H955.4c-4.5,0-8.2,3.7-8.2,8.2v53.4
					C947.2,260.6,950.9,264.3,955.4,264.3z"/>
			</g>
			<g>
				<path class="st17" d="M1141.1,329.9h-46.6c-4.5,0-8.2,3.7-8.2,8.2v53.4c0,4.5,3.7,8.2,8.2,8.2h46.6c4.5,0,8.2-3.7,8.2-8.2v-53.4
					C1149.3,333.6,1145.6,329.9,1141.1,329.9z"/>
			</g>
			<g>
				<path class="st17" d="M977.9,329.9H796c-4.5,0-8.2,3.7-8.2,8.2v53.4c0,4.5,3.7,8.2,8.2,8.2h181.8c4.5,0,8.2-3.7,8.2-8.2v-53.4
					C986.1,333.6,982.4,329.9,977.9,329.9z"/>
			</g>
			<g>
				<path class="st16" d="M839.8,264.3c4.5,0,8.2-3.7,8.2-8.2v-53.4c0-4.5-3.7-8.2-8.2-8.2h-46.6c-4.5,0-8.2,3.7-8.2,8.2v53.4
					c0,4.5,3.7,8.2,8.2,8.2H839.8z"/>
			</g>
			<g>
				<path class="st18" d="M922.9,319.3h-53.4c-6.5,0-11.7-5.3-11.7-11.7V125.8c0-6.5,5.3-11.7,11.7-11.7h53.4
					c6.5,0,11.7,5.3,11.7,11.7v181.8C934.6,314.1,929.3,319.3,922.9,319.3z M869.5,121.1c-2.6,0-4.7,2.1-4.7,4.7v181.8
					c0,2.6,2.1,4.7,4.7,4.7h53.4c2.6,0,4.7-2.1,4.7-4.7V125.8c0-2.6-2.1-4.7-4.7-4.7H869.5z"/>
			</g>
			<g>
				<path class="st18" d="M1063.8,184.8h-53.4c-6.5,0-11.7-5.3-11.7-11.7v-46.6c0-6.5,5.3-11.7,11.7-11.7h53.4
					c6.5,0,11.7,5.3,11.7,11.7V173C1075.5,179.5,1070.2,184.8,1063.8,184.8z M1010.4,121.8c-2.6,0-4.7,2.1-4.7,4.7V173
					c0,2.6,2.1,4.7,4.7,4.7h53.4c2.6,0,4.7-2.1,4.7-4.7v-46.6c0-2.6-2.1-4.7-4.7-4.7H1010.4z"/>
			</g>
			<g>
				<path class="st18" d="M1063.8,480.3h-53.4c-6.5,0-11.7-5.3-11.7-11.7V286.7c0-6.5,5.3-11.7,11.7-11.7h53.4
					c6.5,0,11.7,5.3,11.7,11.7v181.8C1075.5,475,1070.2,480.3,1063.8,480.3z M1010.4,282c-2.6,0-4.7,2.1-4.7,4.7v181.8
					c0,2.6,2.1,4.7,4.7,4.7h53.4c2.6,0,4.7-2.1,4.7-4.7V286.7c0-2.6-2.1-4.7-4.7-4.7H1010.4z"/>
			</g>
			<g>
				<path class="st18" d="M922.9,479.5h-53.4c-6.5,0-11.7-5.3-11.7-11.7v-46.6c0-6.5,5.3-11.7,11.7-11.7h53.4
					c6.5,0,11.7,5.3,11.7,11.7v46.6C934.6,474.3,929.3,479.5,922.9,479.5z M869.5,416.6c-2.6,0-4.7,2.1-4.7,4.7v46.6
					c0,2.6,2.1,4.7,4.7,4.7h53.4c2.6,0,4.7-2.1,4.7-4.7v-46.6c0-2.6-2.1-4.7-4.7-4.7H869.5z"/>
			</g>
		</g>
		<g>
			<g>
				<path class="st19" d="M955.4,264.3h181.8c4.5,0,8.2-3.7,8.2-8.2v-53.4c0-4.5-3.7-8.2-8.2-8.2H955.4c-4.5,0-8.2,3.7-8.2,8.2v53.4
					C947.2,260.6,950.9,264.3,955.4,264.3z"/>
			</g>
			<g>
				<path class="st20" d="M1141.1,329.9h-46.6c-4.5,0-8.2,3.7-8.2,8.2v53.4c0,4.5,3.7,8.2,8.2,8.2h46.6c4.5,0,8.2-3.7,8.2-8.2v-53.4
					C1149.3,333.6,1145.6,329.9,1141.1,329.9z"/>
			</g>
			<g>
				<path class="st20" d="M977.9,329.9H796c-4.5,0-8.2,3.7-8.2,8.2v53.4c0,4.5,3.7,8.2,8.2,8.2h181.8c4.5,0,8.2-3.7,8.2-8.2v-53.4
					C986.1,333.6,982.4,329.9,977.9,329.9z"/>
			</g>
			<g>
				<path class="st19" d="M839.8,264.3c4.5,0,8.2-3.7,8.2-8.2v-53.4c0-4.5-3.7-8.2-8.2-8.2h-46.6c-4.5,0-8.2,3.7-8.2,8.2v53.4
					c0,4.5,3.7,8.2,8.2,8.2H839.8z"/>
			</g>
			<g>
				<path class="st20" d="M922.9,319.3h-53.4c-6.5,0-11.7-5.3-11.7-11.7V125.8c0-6.5,5.3-11.7,11.7-11.7h53.4
					c6.5,0,11.7,5.3,11.7,11.7v181.8C934.6,314.1,929.3,319.3,922.9,319.3z M869.5,121.1c-2.6,0-4.7,2.1-4.7,4.7v181.8
					c0,2.6,2.1,4.7,4.7,4.7h53.4c2.6,0,4.7-2.1,4.7-4.7V125.8c0-2.6-2.1-4.7-4.7-4.7H869.5z"/>
			</g>
			<g>
				<path class="st20" d="M1063.8,184.8h-53.4c-6.5,0-11.7-5.3-11.7-11.7v-46.6c0-6.5,5.3-11.7,11.7-11.7h53.4
					c6.5,0,11.7,5.3,11.7,11.7V173C1075.5,179.5,1070.2,184.8,1063.8,184.8z M1010.4,121.8c-2.6,0-4.7,2.1-4.7,4.7V173
					c0,2.6,2.1,4.7,4.7,4.7h53.4c2.6,0,4.7-2.1,4.7-4.7v-46.6c0-2.6-2.1-4.7-4.7-4.7H1010.4z"/>
			</g>
			<g>
				<path class="st20" d="M1063.8,480.3h-53.4c-6.5,0-11.7-5.3-11.7-11.7V286.7c0-6.5,5.3-11.7,11.7-11.7h53.4
					c6.5,0,11.7,5.3,11.7,11.7v181.8C1075.5,475,1070.2,480.3,1063.8,480.3z M1010.4,282c-2.6,0-4.7,2.1-4.7,4.7v181.8
					c0,2.6,2.1,4.7,4.7,4.7h53.4c2.6,0,4.7-2.1,4.7-4.7V286.7c0-2.6-2.1-4.7-4.7-4.7H1010.4z"/>
			</g>
			<g>
				<path class="st20" d="M922.9,479.5h-53.4c-6.5,0-11.7-5.3-11.7-11.7v-46.6c0-6.5,5.3-11.7,11.7-11.7h53.4
					c6.5,0,11.7,5.3,11.7,11.7v46.6C934.6,474.3,929.3,479.5,922.9,479.5z M869.5,416.6c-2.6,0-4.7,2.1-4.7,4.7v46.6
					c0,2.6,2.1,4.7,4.7,4.7h53.4c2.6,0,4.7-2.1,4.7-4.7v-46.6c0-2.6-2.1-4.7-4.7-4.7H869.5z"/>
			</g>
		</g>
	</g>
</g>
<rect x="5.4" y="-170.3" class="st39" width="1967.6" height="267"/>
<text transform="matrix(1 0 0 1 5.3688 -146.505)"><tspan x="0" y="0" class="st25 st51 st52">Tyler chose our Simple Branding Package and wanted a modern, organic, yet timeless style, so we created a hashtag brand </tspan><tspan x="0" y="50" class="st25 st51 st52">symbol that speaks for itself. To Tyler, Instagram is about creating an online community. We’ve helped him convey his Ins</tspan><tspan x="1940.9" y="50" class="st25 st51 st52">-</tspan><tspan x="0" y="100" class="st25 st51 st52">tagram expertise while subtly highlighting the interconnectivity that Instagram provides.</tspan></text>
</svg>
